<?xml version="1.0" standalone="no"?><!DOCTYPE svg PUBLIC "-//W3C//DTD SVG 1.1//EN" "http://www.w3.org/Graphics/SVG/1.1/DTD/svg11.dtd"><svg t="1720349142066" class="icon" viewBox="0 0 1495 1024" version="1.1" xmlns="http://www.w3.org/2000/svg" p-id="9214" xmlns:xlink="http://www.w3.org/1999/xlink" width="747.5" height="512"><path d="M584.539794 522.490755c0 25.075462 20.469765 45.545227 45.545227 45.545227h615.116442c25.075462 0 45.545227-20.469765 45.545228-45.545227s-20.469765-45.545227-45.545228-45.545228H630.085021c-25.075462 0-45.545227 20.469765-45.545227 45.545228z m0 455.964018c0 25.075462 20.469765 45.545227 45.545227 45.545227h615.116442c25.075462 0 45.545227-20.469765 45.545228-45.545227s-20.469765-45.545227-45.545228-45.545228H630.085021c-25.075462-0.511744-45.545227 20.469765-45.545227 45.545228zM13.433347 680.61969c-17.911044 17.911044-17.911044 46.568716 0 64.47976L271.352388 1002.506747c1.535232 1.535232 2.558721 2.558721 4.093953 3.582209 8.187906 10.746627 21.493253 17.3993 35.822089 17.3993 25.075462 0 45.545227-20.469765 45.545227-45.545228v-910.904547c0-25.075462-20.469765-45.545227-45.545227-45.545228s-45.545227 20.469765-45.545228 45.545228v800.87956L77.913107 680.61969c-17.911044-17.911044-46.568716-17.911044-64.47976 0zM584.539794 67.038481c0 25.075462 20.469765 45.545227 45.545227 45.545227h615.116442c25.075462 0 45.545227-20.469765 45.545228-45.545227s-20.469765-45.545227-45.545228-45.545228H630.085021c-25.075462 0-45.545227 20.469765-45.545227 45.545228z" p-id="9215"></path></svg>