<?xml version="1.0" standalone="no"?><!DOCTYPE svg PUBLIC "-//W3C//DTD SVG 1.1//EN" "http://www.w3.org/Graphics/SVG/1.1/DTD/svg11.dtd"><svg t="1720170704000" class="icon" viewBox="0 0 1024 1024" version="1.1" xmlns="http://www.w3.org/2000/svg" p-id="8962" xmlns:xlink="http://www.w3.org/1999/xlink" width="512" height="512"><path d="M256 458.688a256 256 0 0 1 512 0v53.568l-9.6 4.352c-15.232 6.784-50.24 22.464-61.12 54.784-4.032 11.712-3.968 24.32-3.968 35.968v193.28c0 11.648 0 24.192 3.968 35.968 10.88 32.32 45.888 48 61.12 54.784 15.488 7.04 30.08 13.76 45.312 14.976 16.96 1.408 34.112-2.24 48.96-10.624 13.568-7.552 23.68-19.968 33.984-32.512 0 0 10.752-12.8 15.744-18.56 8.96-10.432 19.264-22.4 27.776-33.408 13.952-18.304 27.968-40.256 34.88-65.728a157.376 157.376 0 0 0 0-83.072c-4.992-18.56-14.144-34.816-26.24-51.968a1091.648 1091.648 0 0 0-46.848-59.264s-11.584-14.72-14.784-18.304a94.656 94.656 0 0 0-23.872-20.352v-53.888a341.312 341.312 0 1 0-682.624 0v53.888a94.656 94.656 0 0 0-23.872 20.352c-3.2 3.648-14.784 18.24-14.784 18.24-19.456 23.68-35.2 42.752-46.848 59.328-12.096 17.152-21.248 33.472-26.24 51.968a157.376 157.376 0 0 0 0 83.072c6.912 25.472 20.928 47.36 34.944 65.728 8.448 11.072 18.688 22.976 27.712 33.408 4.992 5.76 15.744 18.56 15.744 18.56 10.24 12.544 20.48 24.96 33.92 32.512 14.912 8.384 32.064 12.032 49.024 10.624 15.296-1.28 29.824-7.872 45.312-14.976 15.232-6.784 50.24-22.464 61.12-54.784 4.032-11.776 3.968-24.32 3.968-35.968V607.36c0-11.648 0-24.256-3.968-35.968-10.88-32.32-45.888-48-61.12-54.784L256 512.256v-53.568z" fill="#333333" p-id="8963"></path></svg>