<?xml version="1.0" standalone="no"?><!DOCTYPE svg PUBLIC "-//W3C//DTD SVG 1.1//EN" "http://www.w3.org/Graphics/SVG/1.1/DTD/svg11.dtd"><svg t="1738934647317" class="icon" viewBox="0 0 1024 1024" version="1.1" xmlns="http://www.w3.org/2000/svg" p-id="5943" xmlns:xlink="http://www.w3.org/1999/xlink" width="200" height="200"><path d="M512.004 160c130.464 0 238.448 98.092 254.064 224.408 126.2 7.32 226.536 112.6 225.936 240.74-0.624 132.696-110.928 238.852-243.628 238.852H275.632c-132.696 0-243-106.156-243.628-238.852-0.6-128.14 99.74-233.42 225.94-240.74C273.552 258.092 381.536 160 512.004 160z m-192 256v16a16 16 0 0 1-16 16h-32c-96.024 0-174.336 77.3-175.976 172.94C94.348 719.412 176.644 800 275.124 800h473.76c98.484 0 180.78-80.588 179.092-179.06-1.636-95.64-79.948-172.94-175.972-172.94h-32a16 16 0 0 1-16-16v-12.776c0-105.136-83.172-193.196-188.288-195.188-107.56-2.04-195.712 84.86-195.712 191.964zM416 504a16 16 0 0 1 16 16v200a16 16 0 0 1-16 16h-32a16 16 0 0 1-16-16v-200a16 16 0 0 1 16-16h32z m112 0a16 16 0 0 1 16 16v200a16 16 0 0 1-16 16h-32a16 16 0 0 1-16-16v-200a16 16 0 0 1 16-16h32z m112 0a16 16 0 0 1 16 16v200a16 16 0 0 1-16 16h-32a16 16 0 0 1-16-16v-200a16 16 0 0 1 16-16h32z" fill="#333333" p-id="5944"></path></svg>