<?xml version="1.0" standalone="no"?><!DOCTYPE svg PUBLIC "-//W3C//DTD SVG 1.1//EN" "http://www.w3.org/Graphics/SVG/1.1/DTD/svg11.dtd"><svg t="1720090792284" class="icon" viewBox="0 0 1024 1024" version="1.1" xmlns="http://www.w3.org/2000/svg" p-id="1737" xmlns:xlink="http://www.w3.org/1999/xlink" width="512" height="512"><path d="M876.88 262.18c-46.29-59.05-112.8-96.54-187.29-105.56-62.53-7.57-124.4 5.68-177.59 37.52-53.19-31.84-115.05-45.09-177.59-37.52-74.48 9.02-141 46.51-187.29 105.56-46.29 59.05-66.81 132.59-57.79 207.07 9.02 74.48 46.51 141 105.56 187.29l286.09 224.27a49.798 49.798 0 0 0 30.81 10.65h0.44a50.022 50.022 0 0 0 30.8-10.65l286.09-224.27c59.05-46.29 96.53-112.8 105.56-187.29s-11.51-148.02-57.8-207.07z" p-id="1738"></path></svg>